# xmcd CD database file
# Copyright (C) 1993-1998 Ti Kan
#
# Track frame offsets:
# 187
# 9755
# 20822
# 34845
# 51880
# 62390
# 77062
# 87327
# 103037
# 112990
#
# Disc length: 1627 seconds
# Revision: 0
# Processed by: cddbd v1.5.2PL0 Copyright (c) Steve Scherf et al.
# Submitted via: CDSpectrumPro v3.2.328
#
DISCID=7006590a
DTITLE=Floyd Cramer - Floyd Cramer - Super Hits
DYEAR=1996
DGENRE=Instrumental
TTITLE0=Stood Up
TTITLE1=Last Date
TTITLE2=Maple Leaf Rag
TTITLE3=Georgia On My Mind
TTITLE4=San Antonio Rose
TTITLE5=Rhythm Of The Rain
TTITLE6=Today I Started Loving You Again
TTITLE7=The Gambler
TTITLE8=Help Me Make It Through The Night
TTITLE9=Dallas
EXTD=
EXTT0=
EXTT1=
EXTT2=
EXTT3=
EXTT4=
EXTT5=
EXTT6=
EXTT7=
EXTT8=
EXTT9=
PLAYORDER=
